<?xml version="1.0" encoding="UTF-8"?>
<svg id="Layer_1" data-name="Layer 1" xmlns="http://www.w3.org/2000/svg" viewBox="0 0 387 284.15">
  <defs>
    <style>
      .cls-1 {
        fill: #c00;
        stroke: #000;
        stroke-miterlimit: 10;
        stroke-width: 3px;
      }
    </style>
  </defs>
  <path class="cls-1" d="m385.5,230.5c-.91,3.34-1.64,6.75-2.76,10.02-7.55,21.98-31.96,40.64-55.14,42.06-9.57.59-18.16-2.7-26.21-7.59-13.2-8.02-23.55-19.24-33.98-30.36-7.18-7.66-14.27-15.39-21.59-22.91-2.86-2.94-6.13-5.5-9.39-8.01-4.8-3.7-10.2-5.31-16.39-5.23-17.74.23-35.49.23-53.23,0-6.21-.08-11.8,1.4-16.31,5.38-7.29,6.43-14.25,13.25-21.15,20.1-11.24,11.18-21.95,22.92-33.59,33.66-8.7,8.02-19.02,13.81-31.29,14.8-13.13,1.06-24.52-3.84-35.03-10.98-14.65-9.95-24.62-23.2-27.47-41.13-.03-.21-.3-.38-.46-.56,0-6.75,0-13.5,0-20.25.2-1.59.5-3.18.59-4.77.39-6.99.58-13.99,1.08-20.97,2.7-37.92,7.83-75.52,14.87-112.87C25.26,32.65,58.67,3.66,97.55,1.62c13.31-.7,25.84,1.73,37.8,7.42,15.41,7.34,31.6,10.66,48.67,9.88,5.49-.25,11.01-.29,16.49,0,18.74,1.01,36.36-2.87,53.43-10.67,6.93-3.17,14.64-5.48,22.2-6.27,43.98-4.6,84.71,26.17,92.9,69.65,7.5,39.81,12.97,79.88,15.16,120.37.33,6.09.86,12.16,1.3,18.24v20.25Zm-28.52-24.83c-2.3-43.16-7.82-85.87-15.84-128.27-5.57-29.44-31.93-49.78-61.67-46.99-7.23.68-14.34,4.03-21.23,6.82-12.47,5.06-25.17,9.13-38.68,9.63-12.61.48-25.24.5-37.85.45-6.86-.03-13.75-.31-20.57-1.03-13.82-1.45-26.57-6.57-39.24-11.95-4.21-1.79-8.7-3.45-13.2-3.98-28.73-3.39-55.92,15.63-62.07,43.84-3.29,15.11-5.51,30.46-7.86,45.76-5.18,33.76-7.96,67.74-8.79,101.89-.16,6.43,1.57,12.35,5.86,16.93,4.04,4.31,8.74,8.16,13.64,11.49,7.91,5.37,16.14,5.07,23.53-1.12,7.16-6.01,14.19-12.23,20.8-18.83,11.31-11.3,21.89-23.35,33.47-34.36,9.97-9.48,21.82-15.89,36.17-15.91,20.25-.03,40.5,0,60.74.03,7.54,0,14.84,1.71,21.06,5.77,7.38,4.83,14.7,10.03,21.02,16.13,9.97,9.62,18.81,20.41,28.67,30.16,6.89,6.81,14.53,12.92,22.15,18.92,3.71,2.92,8.32,3.94,13.14,2.37,8.79-2.86,16.2-7.74,21.79-15.16,3.41-4.52,5.14-9.61,4.99-15.36-.15-5.74-.03-11.49-.03-17.24Z"/>
  <path class="cls-1" d="m122.81,123.79c0,7.21.13,13.93-.03,20.65-.25,10.53-9.53,17.3-18.99,13.99-5.6-1.96-9.3-6.94-9.41-13.12-.13-6.97-.03-13.95-.03-21.51-2.78,0-5.22.05-7.67,0-5.61-.13-11.29.2-16.81-.59-6.78-.96-11.56-7.69-11.12-14.39.47-7.27,6.04-13.02,13.2-13.41,3.61-.2,7.24-.08,10.87-.1,3.61-.01,7.22,0,11.51,0,0-3.42,0-6.61,0-9.79,0-4-.09-8,.05-12,.27-7.6,6.09-13.42,13.61-13.79,7.03-.35,13.62,4.75,14.4,12.03.67,6.18.33,12.47.42,18.71.02,1.47,0,2.94,0,4.84,6.51,0,12.6-.05,18.69.03,2.23.03,4.55.04,6.67.64,6.4,1.81,10.49,7.91,10.05,14.53-.43,6.44-5.08,11.94-11.62,12.85-4.42.61-8.96.37-13.45.45-3.24.06-6.47.01-10.34.01Z"/>
  <path class="cls-1" d="m299.07,102.41c-11.67-.05-20.89-9.32-20.88-20.99,0-11.6,9.38-21.05,20.91-21.08,11.66-.03,21.23,9.61,21.14,21.29-.09,11.56-9.53,20.83-21.16,20.78Z"/>
  <path class="cls-1" d="m285.12,137.53c0,11.66-9.26,20.97-20.89,21.01-11.75.04-21.26-9.49-21.15-21.2.1-11.54,9.62-20.92,21.16-20.85,11.61.06,20.89,9.41,20.88,21.04Z"/>
</svg>