<?xml version="1.0" encoding="UTF-8"?>
<svg id="Layer_1" data-name="Layer 1" xmlns="http://www.w3.org/2000/svg" viewBox="0 0 339.2 291.19">
  <defs>
    <style>
      .cls-1 {
        fill: #00c;
        stroke: #000;
        stroke-miterlimit: 10;
        stroke-width: 3px;
      }
    </style>
  </defs>
  <path class="cls-1" d="m157.22,73.56c.33-6.36.15-12.39,1.05-18.25,2.54-16.44,16.84-28.93,33.39-29.7,9.37-.44,13-3.84,13.94-13.08.66-6.49,6.09-11.25,12.51-10.97,6.35.28,11.33,5.53,11.44,12.07.32,18.54-15.11,34.86-33.88,35.85-10.23.54-14.11,4.59-14.12,14.73,0,2.97,0,5.95,0,9.35,1.62,0,2.96,0,4.29,0,22.38,0,44.75-.02,67.13.02,6.25.01,11,3.73,12.34,9.45,1.17,5.01-1.22,10.7-6.03,12.93-2.39,1.1-5.28,1.54-7.94,1.55-51.38.09-102.76.06-154.14.06H25.76v120.02h4.41c49.5,0,99.01,0,148.51,0,1.25,0,2.51-.05,3.75.04,6.26.49,11.14,5.77,11.12,12-.02,6.08-4.73,11.28-10.83,11.89-1.24.12-2.5.07-3.75.07-50.38,0-100.76,0-151.14,0-16.53,0-26.33-9.8-26.33-26.34,0-38.5,0-76.99,0-115.49,0-16.31,9.85-26.19,26.09-26.19,41.63,0,83.26,0,124.88,0h4.74Z"/>
  <path class="cls-1" d="m289.6,145.41c27.28,1.19,41.86,19.26,46.04,34.91,1.18,4.41,1.78,9.09,1.88,13.66.26,11.74.13,23.5.08,35.25-.14,31.69-23.32,57.06-54.94,60.19-30.03,2.97-57.98-18.19-63.99-48.62-.79-4.01-.99-8.19-1.05-12.29-.14-10.62.34-21.27-.12-31.87-1.19-27.06,19.1-50.28,48.09-51.2,0-3.29,0-6.61,0-9.93.03-21.83,14.28-36.84,36-37.93,7.35-.37,11.99-5.35,12-13.04.03-23.37-.02-46.75.03-70.12.02-9.23,8.05-15.21,16.17-12.05,4.89,1.9,7.73,5.67,7.75,10.91.1,24.75.33,49.5-.1,74.24-.32,18.2-15.83,33.18-34.1,34-9.64.43-13.75,4.71-13.76,14.33,0,3.1,0,6.21,0,9.57Zm-48.01,66.36c0,6-.07,12,.01,18,.28,19.9,16.18,35.74,35.85,35.81,19.86.07,35.89-15.78,36.13-35.89.14-12,.12-24,0-36-.12-13.59-10.48-23.94-24.03-24.1-8-.09-16-.1-24,0-13.37.17-23.73,10.48-23.95,23.8-.1,6.12-.02,12.25-.02,18.37Z"/>
  <path class="cls-1" d="m151.18,193.57c-9.37,0-18.75.01-28.12,0-7.99-.02-13.45-4.85-13.5-11.91-.05-7.11,5.38-12.07,13.3-12.08,19.12-.02,38.25-.02,57.37,0,7.9,0,13.37,5,13.32,12.08-.05,7.06-5.5,11.89-13.5,11.91-9.62.02-19.25,0-28.87,0Z"/>
  <path class="cls-1" d="m73.69,121.57c4,0,8-.1,12,.02,6.71.2,11.87,5.53,11.83,12.05-.04,6.38-5.08,11.72-11.61,11.86-8.24.18-16.5.17-24.74,0-6.52-.14-11.58-5.48-11.63-11.85-.05-6.56,5.05-11.86,11.79-12.07,4.12-.13,8.25-.02,12.37-.02Z"/>
  <path class="cls-1" d="m139.79,121.58c2.12,0,4.25-.1,6.37.02,6.31.36,11.27,5.52,11.37,11.74.11,6.38-4.85,11.85-11.31,12.16-4.36.21-8.75.18-13.12.01-6.5-.25-11.54-5.56-11.55-11.93-.01-6.41,4.97-11.65,11.49-11.99,2.24-.11,4.5-.02,6.75-.01Z"/>
  <path class="cls-1" d="m199.4,145.54c-2.12,0-4.25.1-6.37-.02-6.47-.36-11.49-5.67-11.45-12.04.04-6.41,5.05-11.64,11.59-11.88,4.24-.15,8.5-.15,12.74,0,6.52.22,11.59,5.47,11.65,11.84.06,6.53-5.07,11.83-11.79,12.1-2.12.08-4.25.01-6.37,0Z"/>
  <path class="cls-1" d="m67.69,193.56c-2.12,0-4.25.07-6.37-.01-6.71-.27-11.84-5.58-11.78-12.1.06-6.41,5.08-11.61,11.64-11.83,4.24-.15,8.5-.15,12.74,0,6.51.23,11.57,5.51,11.6,11.88.04,6.38-4.96,11.68-11.46,12.04-2.12.12-4.25.02-6.37.03Z"/>
  <path class="cls-1" d="m289.57,199.52c0,2.25.12,4.5-.02,6.74-.41,6.46-5.81,11.41-12.19,11.3-6.2-.12-11.44-5.09-11.71-11.39-.18-4.36-.18-8.75,0-13.11.26-6.52,5.57-11.49,11.99-11.47,6.38.02,11.61,5.06,11.93,11.57.1,2.12.02,4.25,0,6.37Z"/>
</svg>