<?xml version="1.0" encoding="UTF-8"?>
<svg id="Layer_1" data-name="Layer 1" xmlns="http://www.w3.org/2000/svg" viewBox="0 0 384 384">
  <defs>
    <style>
      .cls-1 {
        fill: #ddd;
      }
    </style>
  </defs>
  <path class="cls-1" d="m0,204c0-8,0-16,0-24,.22-1.09.48-2.17.64-3.26,1.3-8.76,2.14-17.61,3.93-26.26C20.02,75.97,83.52,15.2,158.55,2.97,165.67,1.81,172.85.98,180,0,188,0,196,0,204,0c.96.21,1.92.46,2.89.62,12.03,2.07,24.46,2.84,36.04,6.4,75.84,23.34,122.03,74.06,138.12,151.89,1.43,6.94,1.99,14.05,2.96,21.09v24c-.21.97-.54,1.92-.62,2.9-3.37,42.07-18.78,79.19-46.48,110.96-29.77,34.16-67.15,55.28-111.83,63.23-6.98,1.24-14.05,1.96-21.07,2.91h-24c-.83-.2-1.66-.53-2.5-.59-33.05-2.48-63.59-12.61-91.07-31.11C41,321.71,13.02,279.41,2.99,225.46c-1.32-7.09-2.01-14.3-2.99-21.46Zm26.87-12.31c-.35,91,73.6,165.19,164.92,165.44,90.92.25,164.79-73.3,165.34-164.65.55-90.94-73.29-165.17-164.73-165.62-90.96-.45-165.18,73.46-165.53,164.82Z"/>
  <path class="cls-1" d="m186.71,95.64c13.2.08,23.21,1.72,32.66,6.21,22.69,10.79,30.38,34.1,18.52,56.22-5.17,9.65-12.63,17.3-21.02,24.13-1.26,1.02-2.52,2.05-3.8,3.05-8.24,6.44-12.16,14.83-12.11,25.34.05,11.81-4.5,15.76-16.37,14.87-8.54-.64-11.57-3.87-12.19-12.5-1.4-19.34,5.16-34.88,21.11-46.43,5-3.63,9.56-8.04,13.67-12.68,4.06-4.59,5.41-10.38,3.85-16.5-1.86-7.31-8.65-11.95-18.38-12.79-11.56-1-21.08,2.04-27.51,12.64-4.14,6.82-9.02,8.12-15.94,5.57-6.6-2.43-10.07-8.12-9.13-15.38,1.35-10.36,7.64-17.44,15.97-22.88,10.15-6.63,21.58-8.85,30.69-8.87Z"/>
  <path class="cls-1" d="m205.68,262.27c.06,10.71-8.81,19.67-19.44,19.62-10.34-.05-18.96-8.72-19.06-19.17-.11-10.79,8.3-19.61,18.8-19.73,10.8-.12,19.63,8.52,19.7,19.28Z"/>
</svg>