<?xml version="1.0" encoding="UTF-8"?>
<svg id="Layer_1" data-name="Layer 1" xmlns="http://www.w3.org/2000/svg" xmlns:xlink="http://www.w3.org/1999/xlink" viewBox="0 0 500 500">
  <defs>
    <style>
      .cls-1 {
        fill: url(#New_Pattern_5);
      }

      .cls-2, .cls-3 {
        fill: none;
      }

      .cls-3 {
        stroke: #606264;
        stroke-miterlimit: 10;
      }
    </style>
    <pattern id="New_Pattern_5" data-name="New Pattern 5" x="0" y="0" width="65" height="37.5" patternUnits="userSpaceOnUse" viewBox="0 0 65 37.5">
      <g>
        <rect class="cls-2" width="65" height="37.5"/>
        <g>
          <polygon class="cls-3" points="62.3 14.14 47.17 14.14 39.6 27.25 47.17 40.36 62.3 40.36 69.87 27.25 62.3 14.14"/>
          <polyline class="cls-3" points="47.17 14.14 54.74 27.25 69.87 27.25"/>
          <line class="cls-3" x1="47.17" y1="40.36" x2="54.74" y2="27.25"/>
        </g>
        <g>
          <polygon class="cls-3" points="29.8 32.89 14.67 32.89 7.1 46 14.67 59.11 29.8 59.11 37.37 46 29.8 32.89"/>
          <polyline class="cls-3" points="14.67 32.89 22.24 46 37.37 46"/>
        </g>
        <g>
          <polygon class="cls-3" points="-2.7 14.14 -17.83 14.14 -25.4 27.25 -17.83 40.36 -2.7 40.36 4.87 27.25 -2.7 14.14"/>
          <polyline class="cls-3" points="-17.83 14.14 -10.26 27.25 4.87 27.25"/>
        </g>
        <g>
          <polygon class="cls-3" points="62.3 -23.36 47.17 -23.36 39.6 -10.25 47.17 2.86 62.3 2.86 69.87 -10.25 62.3 -23.36"/>
          <line class="cls-3" x1="47.17" y1="2.86" x2="54.74" y2="-10.25"/>
        </g>
        <g>
          <polygon class="cls-3" points="29.8 -4.61 14.67 -4.61 7.1 8.5 14.67 21.61 29.8 21.61 37.37 8.5 29.8 -4.61"/>
          <polyline class="cls-3" points="14.67 -4.61 22.24 8.5 37.37 8.5"/>
          <line class="cls-3" x1="14.67" y1="21.61" x2="22.24" y2="8.5"/>
        </g>
        <polygon class="cls-3" points="-2.7 -23.36 -17.83 -23.36 -25.4 -10.25 -17.83 2.86 -2.7 2.86 4.87 -10.25 -2.7 -23.36"/>
      </g>
    </pattern>
  </defs>
  <rect class="cls-1" width="500" height="500"/>
</svg>